<svg xmlns="http://www.w3.org/2000/svg" id="canvas" viewBox="213.293 347.155 939.191 178.668"><path d="M 296.62,350.51 C 295.59 351.17, 294.63 351.77, 293.84 354.41 C 293.06 357.05, 293.21 359.14, 292.69 363.73 C 292.18 368.32, 291.85 371.26, 291.25 377.36 C 290.64 383.45, 290.15 387.20, 289.67 394.20 C 289.19 401.20, 289.03 404.99, 288.84 412.38 C 288.64 419.76, 288.57 423.71, 288.69 431.13 C 288.81 438.56, 288.99 442.43, 289.43 449.52 C 289.87 456.60, 290.27 460.16, 290.89 466.55 C 291.50 472.95, 291.81 476.00, 292.52 481.50 C 293.22 486.99, 293.74 489.71, 294.41 494.02 C 295.08 498.34, 295.25 500.22, 295.86 503.06 C 296.47 505.90, 296.73 507.20, 297.46 508.21 C 298.18 509.21, 298.90 509.23, 299.48 508.07 C 300.05 506.91, 300.55 505.37, 300.33 502.42 C 300.11 499.46, 299.28 497.58, 298.37 493.30 C 297.46 489.02, 296.70 486.42, 295.78 481.01 C 294.87 475.60, 294.51 472.58, 293.79 466.25 C 293.06 459.91, 292.64 456.37, 292.16 449.34 C 291.68 442.31, 291.48 438.47, 291.37 431.09 C 291.26 423.72, 291.34 419.79, 291.62 412.47 C 291.90 405.14, 292.08 401.38, 292.77 394.46 C 293.46 387.54, 294.09 383.84, 295.05 377.85 C 296.01 371.86, 296.66 368.95, 297.56 364.49 C 298.47 360.04, 299.29 358.24, 299.58 355.57 C 299.87 352.90, 299.59 352.15, 299.00 351.14 C 298.40 350.12, 297.65 349.86, 296.62 350.51" style="stroke: black; fill: black;"/><path d="M 217.52,371.12 C 218.69 371.51, 219.59 371.34, 222.50 370.69 C 225.41 370.03, 226.92 369.00, 232.07 367.85 C 237.22 366.71, 240.78 366.03, 248.25 364.98 C 255.72 363.92, 260.33 363.48, 269.44 362.58 C 278.55 361.68, 283.77 361.15, 293.79 360.49 C 303.81 359.83, 309.38 359.71, 319.55 359.29 C 329.71 358.88, 335.24 358.54, 344.60 358.40 C 353.96 358.26, 358.61 358.25, 366.36 358.60 C 374.11 358.95, 377.74 359.31, 383.36 360.16 C 388.98 361.00, 391.18 362.05, 394.46 362.81 C 397.74 363.56, 398.58 364.01, 399.76 363.93 C 400.93 363.85, 401.23 363.28, 400.35 362.40 C 399.47 361.52, 398.66 360.56, 395.34 359.53 C 392.02 358.50, 389.52 357.90, 383.74 357.25 C 377.96 356.59, 374.28 356.44, 366.44 356.26 C 358.61 356.07, 353.96 356.11, 344.56 356.32 C 335.17 356.53, 329.64 356.87, 319.46 357.29 C 309.28 357.70, 303.71 357.82, 293.66 358.39 C 283.61 358.97, 278.38 359.46, 269.23 360.17 C 260.07 360.88, 255.47 361.20, 247.89 361.93 C 240.31 362.66, 236.70 363.07, 231.34 363.82 C 225.99 364.58, 224.05 364.71, 221.11 365.69 C 218.17 366.68, 217.36 367.65, 216.64 368.73 C 215.93 369.82, 216.35 370.72, 217.52 371.12" style="stroke: black; fill: black;"/><path d="M 389.21,466.02 C 388.07 465.62, 386.98 465.67, 384.79 466.42 C 382.60 467.18, 381.13 467.77, 378.25 469.80 C 375.37 471.83, 373.42 473.49, 370.39 476.56 C 367.36 479.64, 365.69 481.55, 363.10 485.17 C 360.50 488.80, 358.97 490.82, 357.44 494.69 C 355.91 498.56, 355.00 500.81, 355.44 504.51 C 355.87 508.20, 356.90 510.54, 359.61 513.14 C 362.33 515.75, 364.59 516.73, 369.03 517.54 C 373.47 518.35, 376.32 518.12, 381.81 517.18 C 387.30 516.24, 390.66 515.25, 396.49 512.84 C 402.32 510.43, 405.64 508.70, 410.98 505.13 C 416.31 501.55, 419.15 499.25, 423.18 494.95 C 427.22 490.66, 429.05 488.21, 431.16 483.65 C 433.27 479.09, 433.89 476.56, 433.74 472.16 C 433.58 467.75, 432.84 465.24, 430.38 461.63 C 427.93 458.03, 425.76 456.36, 421.47 454.12 C 417.17 451.89, 414.07 451.20, 408.93 450.45 C 403.79 449.71, 400.53 449.83, 395.75 450.39 C 390.97 450.94, 388.44 451.89, 385.05 453.22 C 381.67 454.56, 379.88 455.86, 378.83 457.06 C 377.77 458.26, 378.24 459.15, 379.77 459.24 C 381.30 459.32, 383.15 458.35, 386.46 457.47 C 389.76 456.59, 391.91 455.39, 396.29 454.82 C 400.67 454.26, 403.70 454.05, 408.35 454.66 C 413.00 455.27, 415.82 456.01, 419.54 457.88 C 423.26 459.75, 424.91 461.12, 426.95 464.01 C 429.00 466.90, 429.61 468.69, 429.79 472.32 C 429.97 475.95, 429.67 478.08, 427.85 482.15 C 426.04 486.21, 424.46 488.61, 420.72 492.65 C 416.97 496.69, 414.24 498.98, 409.13 502.36 C 404.03 505.75, 400.76 507.39, 395.18 509.57 C 389.59 511.74, 386.26 512.55, 381.20 513.26 C 376.14 513.96, 373.51 513.83, 369.88 513.09 C 366.25 512.36, 364.92 511.40, 363.04 509.59 C 361.16 507.77, 360.68 506.60, 360.49 504.00 C 360.29 501.39, 360.71 499.73, 362.05 496.57 C 363.39 493.41, 364.73 491.37, 367.17 488.19 C 369.61 485.01, 371.29 483.25, 374.26 480.67 C 377.23 478.09, 379.34 477.08, 382.02 475.29 C 384.70 473.50, 386.00 473.07, 387.68 471.71 C 389.37 470.34, 390.14 469.59, 390.44 468.45 C 390.75 467.31, 390.34 466.43, 389.21 466.02" style="stroke: black; fill: black;"/><path d="M 526.78,476.01 C 527.74 475.36, 528.61 474.37, 528.80 472.41 C 528.99 470.45, 528.94 468.71, 527.73 466.22 C 526.52 463.72, 525.55 461.86, 522.75 459.93 C 519.96 457.99, 517.92 457.24, 513.74 456.55 C 509.56 455.86, 506.96 455.82, 501.86 456.48 C 496.77 457.14, 493.76 457.72, 488.25 459.85 C 482.74 461.97, 479.41 463.56, 474.32 467.10 C 469.24 470.64, 466.58 473.15, 462.83 477.53 C 459.08 481.92, 457.39 484.52, 455.57 489.01 C 453.76 493.51, 453.16 496.08, 453.75 499.99 C 454.34 503.89, 455.59 506.15, 458.51 508.54 C 461.43 510.93, 463.82 511.58, 468.36 511.92 C 472.91 512.27, 475.76 511.78, 481.25 510.25 C 486.74 508.72, 489.95 507.42, 495.83 504.26 C 501.71 501.11, 504.97 499.15, 510.64 494.46 C 516.32 489.78, 519.35 486.91, 524.21 480.85 C 529.07 474.80, 531.28 471.09, 534.94 464.16 C 538.60 457.24, 540.15 453.47, 542.51 446.25 C 544.87 439.04, 545.65 435.07, 546.74 428.11 C 547.83 421.15, 547.90 417.54, 547.97 411.46 C 548.04 405.38, 547.74 402.35, 547.07 397.71 C 546.40 393.07, 546.14 390.88, 544.60 388.27 C 543.07 385.66, 541.50 384.78, 539.41 384.66 C 537.32 384.54, 535.64 385.08, 534.14 387.65 C 532.65 390.22, 532.58 392.51, 531.94 397.50 C 531.30 402.49, 531.16 405.87, 530.96 412.60 C 530.75 419.32, 530.75 423.56, 530.94 431.13 C 531.12 438.69, 531.29 442.99, 531.89 450.43 C 532.49 457.86, 532.92 461.65, 533.95 468.30 C 534.97 474.95, 535.60 478.09, 536.99 483.66 C 538.39 489.24, 539.26 491.77, 540.90 496.17 C 542.54 500.57, 543.37 502.54, 545.18 505.67 C 546.99 508.80, 548.13 510.12, 549.94 511.81 C 551.75 513.49, 552.82 513.67, 554.22 514.10 C 555.61 514.53, 556.27 514.29, 556.91 513.96 C 557.54 513.63, 557.54 513.04, 557.38 512.46 C 557.22 511.88, 556.82 511.92, 556.10 511.05 C 555.38 510.17, 555.14 509.68, 553.76 508.09 C 552.38 506.50, 551.09 505.77, 549.21 503.11 C 547.33 500.44, 546.20 498.80, 544.37 494.75 C 542.53 490.70, 541.57 488.23, 540.04 482.85 C 538.52 477.47, 537.83 474.38, 536.75 467.85 C 535.67 461.32, 535.22 457.56, 534.65 450.21 C 534.09 442.85, 533.93 438.57, 533.92 431.09 C 533.90 423.60, 534.04 419.36, 534.56 412.79 C 535.09 406.22, 535.64 402.85, 536.52 398.23 C 537.41 393.61, 538.46 391.91, 538.98 389.68 C 539.51 387.46, 538.88 386.97, 539.13 387.11 C 539.39 387.25, 539.43 388.13, 540.26 390.38 C 541.09 392.64, 542.38 394.17, 543.30 398.39 C 544.22 402.61, 544.72 405.62, 544.86 411.48 C 545.01 417.35, 544.99 420.91, 544.03 427.70 C 543.07 434.50, 542.33 438.41, 540.07 445.46 C 537.80 452.51, 536.27 456.23, 532.69 462.97 C 529.11 469.72, 526.93 473.35, 522.17 479.20 C 517.40 485.06, 514.42 487.82, 508.85 492.25 C 503.28 496.69, 500.04 498.51, 494.33 501.37 C 488.61 504.24, 485.41 505.31, 480.28 506.56 C 475.16 507.80, 472.49 507.92, 468.70 507.61 C 464.91 507.30, 463.47 506.65, 461.33 505.00 C 459.19 503.35, 458.43 502.26, 458.00 499.35 C 457.57 496.44, 457.66 494.34, 459.17 490.44 C 460.68 486.54, 462.12 483.93, 465.55 479.84 C 468.98 475.75, 471.52 473.28, 476.32 469.99 C 481.12 466.70, 484.36 465.22, 489.56 463.38 C 494.76 461.55, 497.70 461.15, 502.30 460.83 C 506.91 460.51, 509.36 460.87, 512.59 461.80 C 515.82 462.73, 516.75 463.92, 518.45 465.48 C 520.16 467.03, 520.27 468.06, 521.12 469.59 C 521.96 471.13, 522.11 471.93, 522.69 473.15 C 523.26 474.37, 523.17 475.11, 523.99 475.68 C 524.81 476.26, 525.82 476.67, 526.78 476.01" style="stroke: black; fill: black;"/><path d="M 622.73,462.65 C 622.56 461.47, 621.94 460.33, 620.27 459.12 C 618.60 457.91, 617.29 457.02, 614.38 456.59 C 611.47 456.16, 609.35 456.08, 605.72 456.96 C 602.08 457.84, 599.99 458.76, 596.20 461.00 C 592.41 463.23, 590.26 464.87, 586.77 468.14 C 583.28 471.42, 581.27 473.40, 578.74 477.36 C 576.22 481.33, 574.90 483.75, 574.15 487.98 C 573.39 492.20, 573.53 494.70, 574.97 498.49 C 576.42 502.28, 577.96 504.27, 581.38 506.92 C 584.81 509.57, 587.27 510.64, 592.11 511.74 C 596.95 512.83, 600.13 512.92, 605.59 512.40 C 611.05 511.88, 614.18 511.06, 619.40 509.14 C 624.63 507.23, 627.32 505.80, 631.70 502.81 C 636.09 499.83, 638.34 498.00, 641.34 494.22 C 644.33 490.44, 645.53 487.99, 646.68 483.91 C 647.82 479.83, 647.75 477.49, 647.06 473.81 C 646.36 470.13, 645.41 468.30, 643.21 465.50 C 641.01 462.70, 639.21 461.41, 636.05 459.81 C 632.88 458.22, 630.62 457.69, 627.38 457.54 C 624.14 457.39, 622.26 458.13, 619.85 459.05 C 617.45 459.97, 616.48 460.92, 615.36 462.14 C 614.25 463.36, 614.23 464.30, 614.27 465.13 C 614.32 465.96, 614.90 466.16, 615.56 466.31 C 616.23 466.45, 616.40 466.05, 617.61 465.86 C 618.82 465.67, 619.71 465.65, 621.62 465.35 C 623.54 465.06, 624.81 464.40, 627.19 464.40 C 629.57 464.40, 631.16 464.43, 633.52 465.36 C 635.88 466.29, 637.25 467.15, 638.98 469.04 C 640.72 470.94, 641.51 472.10, 642.19 474.85 C 642.86 477.59, 643.16 479.40, 642.35 482.78 C 641.55 486.16, 640.71 488.37, 638.15 491.75 C 635.60 495.13, 633.57 496.92, 629.57 499.69 C 625.56 502.46, 622.98 503.84, 618.11 505.59 C 613.25 507.34, 610.25 508.05, 605.24 508.45 C 600.23 508.85, 597.29 508.61, 593.07 507.60 C 588.85 506.58, 586.90 505.52, 584.14 503.37 C 581.38 501.22, 580.37 499.77, 579.27 496.85 C 578.17 493.94, 577.97 492.21, 578.63 488.81 C 579.29 485.40, 580.31 483.27, 582.57 479.84 C 584.83 476.40, 586.71 474.47, 589.94 471.63 C 593.17 468.79, 595.33 467.29, 598.72 465.62 C 602.10 463.95, 603.95 463.60, 606.87 463.28 C 609.80 462.95, 611.17 463.73, 613.37 464.00 C 615.56 464.27, 616.31 464.41, 617.85 464.61 C 619.40 464.82, 620.13 465.40, 621.10 465.01 C 622.08 464.62, 622.89 463.83, 622.73 462.65" style="stroke: black; fill: black;"/><path d="M 814.11,382.25 C 813.25 382.61, 812.66 382.64, 811.91 384.55 C 811.16 386.46, 811.08 387.77, 810.36 391.81 C 809.65 395.85, 809.54 398.65, 808.33 404.74 C 807.12 410.83, 806.13 414.79, 804.32 422.25 C 802.50 429.71, 801.31 434.19, 799.27 442.03 C 797.24 449.87, 795.98 454.06, 794.13 461.44 C 792.28 468.82, 791.30 472.49, 790.01 478.95 C 788.72 485.40, 788.17 488.44, 787.67 493.71 C 787.18 498.99, 786.88 501.23, 787.53 505.31 C 788.18 509.39, 788.70 511.31, 790.90 514.11 C 793.11 516.91, 794.80 517.96, 798.55 519.31 C 802.30 520.67, 804.36 520.76, 809.65 520.89 C 814.94 521.01, 818.15 520.72, 825.02 519.94 C 831.88 519.17, 836.24 518.39, 843.99 517.03 C 851.74 515.67, 856.09 514.72, 863.75 513.15 C 871.42 511.57, 875.47 510.58, 882.33 509.16 C 889.19 507.74, 892.57 507.17, 898.05 506.05 C 903.54 504.93, 905.99 504.46, 909.75 503.57 C 913.51 502.68, 914.77 502.45, 916.86 501.60 C 918.95 500.76, 919.63 500.12, 920.19 499.35 C 920.75 498.58, 920.54 498.05, 919.66 497.76 C 918.79 497.46, 917.99 497.51, 915.81 497.88 C 913.62 498.24, 912.43 498.58, 908.73 499.59 C 905.04 500.60, 902.73 501.55, 897.34 502.92 C 891.94 504.30, 888.57 504.93, 881.75 506.45 C 874.92 507.98, 870.86 508.98, 863.22 510.53 C 855.57 512.09, 851.23 513.00, 843.52 514.23 C 835.82 515.46, 831.44 516.14, 824.70 516.69 C 817.96 517.25, 814.74 517.31, 809.82 517.00 C 804.90 516.68, 803.17 516.25, 800.09 515.11 C 797.01 513.97, 796.15 513.39, 794.42 511.29 C 792.68 509.19, 792.12 508.08, 791.43 504.62 C 790.73 501.15, 790.69 498.99, 790.96 493.96 C 791.24 488.93, 791.64 485.85, 792.78 479.48 C 793.92 473.10, 794.85 469.42, 796.66 462.07 C 798.48 454.72, 799.73 450.52, 801.85 442.71 C 803.96 434.90, 805.19 430.42, 807.23 423.01 C 809.28 415.60, 810.40 411.65, 812.09 405.64 C 813.78 399.62, 814.67 396.94, 815.67 392.95 C 816.67 388.95, 817.00 387.71, 817.10 385.67 C 817.21 383.64, 816.79 383.45, 816.19 382.76 C 815.59 382.08, 814.96 381.89, 814.11 382.25" style="stroke: black; fill: black;"/><path d="M 940.60,463.60 C 939.66 464.27, 939.02 464.92, 938.38 467.27 C 937.73 469.61, 937.75 471.40, 937.37 475.32 C 936.99 479.24, 936.70 482.04, 936.46 486.86 C 936.23 491.69, 936.20 494.75, 936.18 499.44 C 936.17 504.12, 936.08 506.55, 936.40 510.30 C 936.73 514.04, 936.96 515.79, 937.81 518.15 C 938.67 520.51, 939.69 521.18, 940.66 522.10 C 941.64 523.03, 942.12 522.80, 942.69 522.79 C 943.26 522.77, 943.33 522.44, 943.49 522.01 C 943.66 521.57, 943.57 521.67, 943.50 520.61 C 943.43 519.54, 943.53 518.86, 943.14 516.69 C 942.74 514.52, 941.97 513.20, 941.53 509.75 C 941.09 506.30, 940.93 503.95, 940.94 499.45 C 940.95 494.95, 941.10 491.93, 941.58 487.25 C 942.05 482.56, 942.77 479.88, 943.32 476.03 C 943.86 472.19, 944.35 470.44, 944.30 468.01 C 944.26 465.59, 943.83 464.80, 943.08 463.92 C 942.34 463.04, 941.54 462.93, 940.60 463.60" style="stroke: black; fill: black;"/><path d="M 949.03,428.29 C 949.98 427.89, 949.77 427.65, 949.41 427.62 C 949.05 427.59, 947.90 428.01, 947.24 428.12 C 946.57 428.24, 946.75 428.01, 946.09 428.19 C 945.43 428.38, 944.22 428.74, 943.94 429.03 C 943.66 429.32, 943.69 429.77, 944.70 429.62 C 945.72 429.47, 948.09 428.69, 949.03 428.29" style="stroke: black; fill: black;"/><path d="M 1023.73,456.78 C 1023.32 455.69, 1022.70 454.71, 1020.65 453.75 C 1018.60 452.79, 1017.01 452.21, 1013.48 451.99 C 1009.94 451.78, 1007.39 452.05, 1002.95 452.69 C 998.52 453.33, 995.81 453.94, 991.32 455.18 C 986.82 456.42, 984.08 457.04, 980.48 458.87 C 976.88 460.71, 974.92 461.77, 973.32 464.34 C 971.72 466.92, 971.45 468.96, 972.48 471.75 C 973.52 474.53, 975.11 475.86, 978.51 478.27 C 981.92 480.68, 984.54 481.57, 989.50 483.80 C 994.46 486.04, 997.78 487.17, 1003.29 489.44 C 1008.80 491.72, 1012.14 492.91, 1017.07 495.19 C 1021.99 497.46, 1024.51 498.71, 1027.89 500.80 C 1031.28 502.89, 1032.52 504.16, 1034.00 505.64 C 1035.49 507.12, 1035.80 507.29, 1035.32 508.20 C 1034.85 509.11, 1033.84 509.12, 1031.64 510.19 C 1029.44 511.27, 1027.93 512.34, 1024.31 513.59 C 1020.68 514.83, 1017.95 515.57, 1013.52 516.40 C 1009.10 517.23, 1006.44 517.63, 1002.18 517.74 C 997.92 517.85, 995.51 517.65, 992.23 516.94 C 988.95 516.23, 987.57 515.42, 985.79 514.18 C 984.00 512.94, 983.97 512.06, 983.32 510.75 C 982.68 509.44, 982.72 508.86, 982.56 507.64 C 982.40 506.41, 983.03 505.39, 982.52 504.62 C 982.01 503.85, 980.95 503.23, 980.00 503.79 C 979.05 504.36, 978.05 505.63, 977.77 507.45 C 977.49 509.27, 977.64 510.63, 978.60 512.88 C 979.57 515.13, 980.06 516.92, 982.59 518.72 C 985.12 520.51, 987.30 521.11, 991.24 521.85 C 995.18 522.60, 997.68 522.55, 1002.30 522.44 C 1006.92 522.32, 1009.60 521.97, 1014.34 521.27 C 1019.08 520.57, 1021.89 520.12, 1025.99 518.94 C 1030.09 517.75, 1032.26 517.26, 1034.86 515.33 C 1037.45 513.40, 1038.42 511.82, 1038.97 509.28 C 1039.52 506.75, 1039.37 505.08, 1037.59 502.65 C 1035.82 500.22, 1033.88 499.30, 1030.09 497.12 C 1026.30 494.93, 1023.69 493.97, 1018.63 491.72 C 1013.57 489.48, 1010.25 488.27, 1004.80 485.89 C 999.35 483.52, 996.06 482.20, 991.38 479.85 C 986.70 477.50, 984.34 476.12, 981.38 474.13 C 978.42 472.14, 977.43 471.29, 976.58 469.89 C 975.72 468.50, 975.87 468.41, 977.11 467.15 C 978.35 465.89, 979.66 465.01, 982.77 463.60 C 985.87 462.18, 988.47 461.15, 992.63 460.07 C 996.78 459.00, 999.47 458.50, 1003.55 458.22 C 1007.63 457.95, 1009.90 458.46, 1013.02 458.70 C 1016.14 458.93, 1017.21 459.31, 1019.14 459.41 C 1021.08 459.51, 1021.78 459.73, 1022.70 459.20 C 1023.61 458.68, 1024.14 457.87, 1023.73 456.78" style="stroke: black; fill: black;"/><path d="M 1083.63,404.32 C 1082.88 404.65, 1082.42 404.62, 1081.86 406.15 C 1081.31 407.69, 1081.09 408.63, 1080.84 412.00 C 1080.59 415.38, 1080.79 417.83, 1080.60 423.03 C 1080.41 428.24, 1080.35 431.77, 1079.87 438.03 C 1079.39 444.30, 1078.84 447.89, 1078.21 454.34 C 1077.57 460.80, 1077.20 464.33, 1076.69 470.33 C 1076.18 476.33, 1075.92 479.18, 1075.67 484.36 C 1075.41 489.54, 1075.35 492.04, 1075.42 496.22 C 1075.49 500.40, 1075.39 502.53, 1076.02 505.28 C 1076.64 508.03, 1077.51 508.79, 1078.54 509.97 C 1079.58 511.15, 1080.46 511.10, 1081.18 511.18 C 1081.90 511.25, 1082.05 510.59, 1082.15 510.35 C 1082.24 510.11, 1081.66 510.10, 1081.66 509.99 C 1081.66 509.89, 1082.04 510.20, 1082.14 509.83 C 1082.24 509.46, 1082.30 509.28, 1082.15 508.14 C 1082.00 507.00, 1081.89 506.56, 1081.41 504.13 C 1080.93 501.69, 1080.17 499.88, 1079.74 495.95 C 1079.30 492.02, 1079.19 489.54, 1079.23 484.46 C 1079.27 479.39, 1079.49 476.54, 1079.94 470.59 C 1080.39 464.63, 1080.75 461.13, 1081.48 454.69 C 1082.20 448.25, 1082.78 444.64, 1083.55 438.40 C 1084.32 432.16, 1084.53 428.64, 1085.31 423.48 C 1086.09 418.31, 1087.12 415.99, 1087.46 412.58 C 1087.80 409.18, 1087.39 408.08, 1087.02 406.46 C 1086.64 404.84, 1086.28 404.93, 1085.61 404.50 C 1084.93 404.07, 1084.38 403.99, 1083.63 404.32" style="stroke: black; fill: black;"/><path d="M 1056.83,481.22 C 1057.80 481.76, 1058.42 482.06, 1060.96 481.66 C 1063.50 481.26, 1065.14 480.28, 1069.51 479.23 C 1073.88 478.18, 1076.70 477.35, 1082.82 476.40 C 1088.94 475.44, 1093.17 475.00, 1100.12 474.45 C 1107.07 473.91, 1111.04 473.78, 1117.57 473.68 C 1124.10 473.58, 1127.64 473.79, 1132.78 473.95 C 1137.91 474.12, 1140.07 474.53, 1143.24 474.49 C 1146.41 474.45, 1147.52 474.25, 1148.62 473.76 C 1149.72 473.26, 1149.78 472.64, 1148.74 472.00 C 1147.70 471.37, 1146.60 470.91, 1143.42 470.58 C 1140.24 470.25, 1138.02 470.38, 1132.84 470.36 C 1127.66 470.34, 1124.10 470.32, 1117.51 470.49 C 1110.92 470.66, 1106.93 470.79, 1099.89 471.20 C 1092.86 471.62, 1088.59 471.94, 1082.33 472.58 C 1076.06 473.21, 1073.12 473.68, 1068.56 474.38 C 1064.00 475.08, 1062.00 475.17, 1059.51 476.08 C 1057.02 477.00, 1056.63 477.92, 1056.10 478.95 C 1055.56 479.97, 1055.85 480.68, 1056.83 481.22" style="stroke: black; fill: black;"/></svg>